<svg xmlns="http://www.w3.org/2000/svg" viewBox="0 0 1000 1000" width="1000" height="1000">
  <defs>
    <linearGradient id="bg" x1="0%" y1="0%" x2="100%" y2="100%">
      <stop offset="0%" stop-color="#0c0718"/>
      <stop offset="100%" stop-color="#160d2a"/>
    </linearGradient>
    <linearGradient id="ac" x1="0%" y1="0%" x2="100%" y2="100%">
      <stop offset="0%" stop-color="#B44FFF"/>
      <stop offset="100%" stop-color="#4C00E8"/>
    </linearGradient>
    <linearGradient id="hf" x1="0%" y1="0%" x2="100%" y2="100%">
      <stop offset="0%" stop-color="#B44FFF12"/>
      <stop offset="100%" stop-color="#4C00E80a"/>
    </linearGradient>
    <filter id="glow" x="-40%" y="-40%" width="180%" height="180%">
      <feGaussianBlur stdDeviation="14" result="b"/>
      <feMerge><feMergeNode in="b"/><feMergeNode in="SourceGraphic"/></feMerge>
    </filter>
    <filter id="hglow" x="-60%" y="-60%" width="220%" height="220%">
      <feGaussianBlur stdDeviation="28" result="b"/>
      <feMerge><feMergeNode in="b"/><feMergeNode in="SourceGraphic"/></feMerge>
    </filter>
    <clipPath id="cl"><polygon points="500.0,126.0 176.1,313.0 176.1,687.0 500.0,874.0 823.9,687.0 823.9,313.0"/></clipPath>
  </defs>

  <rect width="1000" height="1000" rx="48" fill="url(#bg)"/>
  <polygon points="500.0,108.0 160.5,304.0 160.5,696.0 500.0,892.0 839.5,696.0 839.5,304.0" fill="none" stroke="url(#ac)" stroke-width="2" opacity="0.2" filter="url(#hglow)"/>
  <polygon points="500.0,122.0 172.6,311.0 172.6,689.0 500.0,878.0 827.4,689.0 827.4,311.0" fill="url(#hf)" stroke="url(#ac)" stroke-width="3.5"/>

  <g clip-path="url(#cl)" opacity="0.18">
    <polygon points="500.0,62.0 463.6,83.0 463.6,125.0 500.0,146.0 536.4,125.0 536.4,83.0" fill="none" stroke="#9B4FFF" stroke-width="1.2"/>
    <polygon points="309.5,128.0 273.1,149.0 273.1,191.0 309.5,212.0 345.8,191.0 345.8,149.0" fill="none" stroke="#9B4FFF" stroke-width="1.2"/>
    <polygon points="385.7,128.0 349.3,149.0 349.3,191.0 385.7,212.0 422.1,191.0 422.1,149.0" fill="none" stroke="#9B4FFF" stroke-width="1.2"/>
    <polygon points="461.9,128.0 425.5,149.0 425.5,191.0 461.9,212.0 498.3,191.0 498.3,149.0" fill="none" stroke="#9B4FFF" stroke-width="1.2"/>
    <polygon points="538.1,128.0 501.7,149.0 501.7,191.0 538.1,212.0 574.5,191.0 574.5,149.0" fill="none" stroke="#9B4FFF" stroke-width="1.2"/>
    <polygon points="614.3,128.0 577.9,149.0 577.9,191.0 614.3,212.0 650.7,191.0 650.7,149.0" fill="none" stroke="#9B4FFF" stroke-width="1.2"/>
    <polygon points="690.5,128.0 654.2,149.0 654.2,191.0 690.5,212.0 726.9,191.0 726.9,149.0" fill="none" stroke="#9B4FFF" stroke-width="1.2"/>
    <polygon points="271.4,194.0 235.0,215.0 235.0,257.0 271.4,278.0 307.7,257.0 307.7,215.0" fill="none" stroke="#9B4FFF" stroke-width="1.2"/>
    <polygon points="347.6,194.0 311.2,215.0 311.2,257.0 347.6,278.0 384.0,257.0 384.0,215.0" fill="none" stroke="#9B4FFF" stroke-width="1.2"/>
    <polygon points="423.8,194.0 387.4,215.0 387.4,257.0 423.8,278.0 460.2,257.0 460.2,215.0" fill="none" stroke="#9B4FFF" stroke-width="1.2"/>
    <polygon points="500.0,194.0 463.6,215.0 463.6,257.0 500.0,278.0 536.4,257.0 536.4,215.0" fill="none" stroke="#9B4FFF" stroke-width="1.2"/>
    <polygon points="576.2,194.0 539.8,215.0 539.8,257.0 576.2,278.0 612.6,257.0 612.6,215.0" fill="none" stroke="#9B4FFF" stroke-width="1.2"/>
    <polygon points="652.4,194.0 616.0,215.0 616.0,257.0 652.4,278.0 688.8,257.0 688.8,215.0" fill="none" stroke="#9B4FFF" stroke-width="1.2"/>
    <polygon points="728.6,194.0 692.3,215.0 692.3,257.0 728.6,278.0 765.0,257.0 765.0,215.0" fill="none" stroke="#9B4FFF" stroke-width="1.2"/>
    <polygon points="157.1,260.0 120.7,281.0 120.7,323.0 157.1,344.0 193.4,323.0 193.4,281.0" fill="none" stroke="#9B4FFF" stroke-width="1.2"/>
    <polygon points="233.3,260.0 196.9,281.0 196.9,323.0 233.3,344.0 269.6,323.0 269.6,281.0" fill="none" stroke="#9B4FFF" stroke-width="1.2"/>
    <polygon points="309.5,260.0 273.1,281.0 273.1,323.0 309.5,344.0 345.8,323.0 345.8,281.0" fill="none" stroke="#9B4FFF" stroke-width="1.2"/>
    <polygon points="385.7,260.0 349.3,281.0 349.3,323.0 385.7,344.0 422.1,323.0 422.1,281.0" fill="none" stroke="#9B4FFF" stroke-width="1.2"/>
    <polygon points="461.9,260.0 425.5,281.0 425.5,323.0 461.9,344.0 498.3,323.0 498.3,281.0" fill="none" stroke="#9B4FFF" stroke-width="1.2"/>
    <polygon points="538.1,260.0 501.7,281.0 501.7,323.0 538.1,344.0 574.5,323.0 574.5,281.0" fill="none" stroke="#9B4FFF" stroke-width="1.2"/>
    <polygon points="614.3,260.0 577.9,281.0 577.9,323.0 614.3,344.0 650.7,323.0 650.7,281.0" fill="none" stroke="#9B4FFF" stroke-width="1.2"/>
    <polygon points="690.5,260.0 654.2,281.0 654.2,323.0 690.5,344.0 726.9,323.0 726.9,281.0" fill="none" stroke="#9B4FFF" stroke-width="1.2"/>
    <polygon points="766.7,260.0 730.4,281.0 730.4,323.0 766.7,344.0 803.1,323.0 803.1,281.0" fill="none" stroke="#9B4FFF" stroke-width="1.2"/>
    <polygon points="842.9,260.0 806.6,281.0 806.6,323.0 842.9,344.0 879.3,323.0 879.3,281.0" fill="none" stroke="#9B4FFF" stroke-width="1.2"/>
    <polygon points="195.2,326.0 158.8,347.0 158.8,389.0 195.2,410.0 231.5,389.0 231.5,347.0" fill="none" stroke="#9B4FFF" stroke-width="1.2"/>
    <polygon points="271.4,326.0 235.0,347.0 235.0,389.0 271.4,410.0 307.7,389.0 307.7,347.0" fill="none" stroke="#9B4FFF" stroke-width="1.2"/>
    <polygon points="347.6,326.0 311.2,347.0 311.2,389.0 347.6,410.0 384.0,389.0 384.0,347.0" fill="none" stroke="#9B4FFF" stroke-width="1.2"/>
    <polygon points="423.8,326.0 387.4,347.0 387.4,389.0 423.8,410.0 460.2,389.0 460.2,347.0" fill="none" stroke="#9B4FFF" stroke-width="1.2"/>
    <polygon points="500.0,326.0 463.6,347.0 463.6,389.0 500.0,410.0 536.4,389.0 536.4,347.0" fill="none" stroke="#9B4FFF" stroke-width="1.2"/>
    <polygon points="576.2,326.0 539.8,347.0 539.8,389.0 576.2,410.0 612.6,389.0 612.6,347.0" fill="none" stroke="#9B4FFF" stroke-width="1.2"/>
    <polygon points="652.4,326.0 616.0,347.0 616.0,389.0 652.4,410.0 688.8,389.0 688.8,347.0" fill="none" stroke="#9B4FFF" stroke-width="1.2"/>
    <polygon points="728.6,326.0 692.3,347.0 692.3,389.0 728.6,410.0 765.0,389.0 765.0,347.0" fill="none" stroke="#9B4FFF" stroke-width="1.2"/>
    <polygon points="804.8,326.0 768.5,347.0 768.5,389.0 804.8,410.0 841.2,389.0 841.2,347.0" fill="none" stroke="#9B4FFF" stroke-width="1.2"/>
    <polygon points="157.1,392.0 120.7,413.0 120.7,455.0 157.1,476.0 193.4,455.0 193.4,413.0" fill="none" stroke="#9B4FFF" stroke-width="1.2"/>
    <polygon points="233.3,392.0 196.9,413.0 196.9,455.0 233.3,476.0 269.6,455.0 269.6,413.0" fill="none" stroke="#9B4FFF" stroke-width="1.2"/>
    <polygon points="309.5,392.0 273.1,413.0 273.1,455.0 309.5,476.0 345.8,455.0 345.8,413.0" fill="none" stroke="#9B4FFF" stroke-width="1.2"/>
    <polygon points="385.7,392.0 349.3,413.0 349.3,455.0 385.7,476.0 422.1,455.0 422.1,413.0" fill="none" stroke="#9B4FFF" stroke-width="1.2"/>
    <polygon points="461.9,392.0 425.5,413.0 425.5,455.0 461.9,476.0 498.3,455.0 498.3,413.0" fill="none" stroke="#9B4FFF" stroke-width="1.2"/>
    <polygon points="538.1,392.0 501.7,413.0 501.7,455.0 538.1,476.0 574.5,455.0 574.5,413.0" fill="none" stroke="#9B4FFF" stroke-width="1.2"/>
    <polygon points="614.3,392.0 577.9,413.0 577.9,455.0 614.3,476.0 650.7,455.0 650.7,413.0" fill="none" stroke="#9B4FFF" stroke-width="1.2"/>
    <polygon points="690.5,392.0 654.2,413.0 654.2,455.0 690.5,476.0 726.9,455.0 726.9,413.0" fill="none" stroke="#9B4FFF" stroke-width="1.2"/>
    <polygon points="766.7,392.0 730.4,413.0 730.4,455.0 766.7,476.0 803.1,455.0 803.1,413.0" fill="none" stroke="#9B4FFF" stroke-width="1.2"/>
    <polygon points="842.9,392.0 806.6,413.0 806.6,455.0 842.9,476.0 879.3,455.0 879.3,413.0" fill="none" stroke="#9B4FFF" stroke-width="1.2"/>
    <polygon points="118.9,458.0 82.6,479.0 82.6,521.0 118.9,542.0 155.3,521.0 155.3,479.0" fill="none" stroke="#9B4FFF" stroke-width="1.2"/>
    <polygon points="195.2,458.0 158.8,479.0 158.8,521.0 195.2,542.0 231.5,521.0 231.5,479.0" fill="none" stroke="#9B4FFF" stroke-width="1.2"/>
    <polygon points="271.4,458.0 235.0,479.0 235.0,521.0 271.4,542.0 307.7,521.0 307.7,479.0" fill="none" stroke="#9B4FFF" stroke-width="1.2"/>
    <polygon points="347.6,458.0 311.2,479.0 311.2,521.0 347.6,542.0 384.0,521.0 384.0,479.0" fill="none" stroke="#9B4FFF" stroke-width="1.2"/>
    <polygon points="423.8,458.0 387.4,479.0 387.4,521.0 423.8,542.0 460.2,521.0 460.2,479.0" fill="none" stroke="#9B4FFF" stroke-width="1.2"/>
    <polygon points="500.0,458.0 463.6,479.0 463.6,521.0 500.0,542.0 536.4,521.0 536.4,479.0" fill="none" stroke="#9B4FFF" stroke-width="1.2"/>
    <polygon points="576.2,458.0 539.8,479.0 539.8,521.0 576.2,542.0 612.6,521.0 612.6,479.0" fill="none" stroke="#9B4FFF" stroke-width="1.2"/>
    <polygon points="652.4,458.0 616.0,479.0 616.0,521.0 652.4,542.0 688.8,521.0 688.8,479.0" fill="none" stroke="#9B4FFF" stroke-width="1.2"/>
    <polygon points="728.6,458.0 692.3,479.0 692.3,521.0 728.6,542.0 765.0,521.0 765.0,479.0" fill="none" stroke="#9B4FFF" stroke-width="1.2"/>
    <polygon points="804.8,458.0 768.5,479.0 768.5,521.0 804.8,542.0 841.2,521.0 841.2,479.0" fill="none" stroke="#9B4FFF" stroke-width="1.2"/>
    <polygon points="881.1,458.0 844.7,479.0 844.7,521.0 881.1,542.0 917.4,521.0 917.4,479.0" fill="none" stroke="#9B4FFF" stroke-width="1.2"/>
    <polygon points="157.1,524.0 120.7,545.0 120.7,587.0 157.1,608.0 193.4,587.0 193.4,545.0" fill="none" stroke="#9B4FFF" stroke-width="1.2"/>
    <polygon points="233.3,524.0 196.9,545.0 196.9,587.0 233.3,608.0 269.6,587.0 269.6,545.0" fill="none" stroke="#9B4FFF" stroke-width="1.2"/>
    <polygon points="309.5,524.0 273.1,545.0 273.1,587.0 309.5,608.0 345.8,587.0 345.8,545.0" fill="none" stroke="#9B4FFF" stroke-width="1.2"/>
    <polygon points="385.7,524.0 349.3,545.0 349.3,587.0 385.7,608.0 422.1,587.0 422.1,545.0" fill="none" stroke="#9B4FFF" stroke-width="1.2"/>
    <polygon points="461.9,524.0 425.5,545.0 425.5,587.0 461.9,608.0 498.3,587.0 498.3,545.0" fill="none" stroke="#9B4FFF" stroke-width="1.2"/>
    <polygon points="538.1,524.0 501.7,545.0 501.7,587.0 538.1,608.0 574.5,587.0 574.5,545.0" fill="none" stroke="#9B4FFF" stroke-width="1.2"/>
    <polygon points="614.3,524.0 577.9,545.0 577.9,587.0 614.3,608.0 650.7,587.0 650.7,545.0" fill="none" stroke="#9B4FFF" stroke-width="1.2"/>
    <polygon points="690.5,524.0 654.2,545.0 654.2,587.0 690.5,608.0 726.9,587.0 726.9,545.0" fill="none" stroke="#9B4FFF" stroke-width="1.2"/>
    <polygon points="766.7,524.0 730.4,545.0 730.4,587.0 766.7,608.0 803.1,587.0 803.1,545.0" fill="none" stroke="#9B4FFF" stroke-width="1.2"/>
    <polygon points="842.9,524.0 806.6,545.0 806.6,587.0 842.9,608.0 879.3,587.0 879.3,545.0" fill="none" stroke="#9B4FFF" stroke-width="1.2"/>
    <polygon points="195.2,590.0 158.8,611.0 158.8,653.0 195.2,674.0 231.5,653.0 231.5,611.0" fill="none" stroke="#9B4FFF" stroke-width="1.2"/>
    <polygon points="271.4,590.0 235.0,611.0 235.0,653.0 271.4,674.0 307.7,653.0 307.7,611.0" fill="none" stroke="#9B4FFF" stroke-width="1.2"/>
    <polygon points="347.6,590.0 311.2,611.0 311.2,653.0 347.6,674.0 384.0,653.0 384.0,611.0" fill="none" stroke="#9B4FFF" stroke-width="1.2"/>
    <polygon points="423.8,590.0 387.4,611.0 387.4,653.0 423.8,674.0 460.2,653.0 460.2,611.0" fill="none" stroke="#9B4FFF" stroke-width="1.2"/>
    <polygon points="500.0,590.0 463.6,611.0 463.6,653.0 500.0,674.0 536.4,653.0 536.4,611.0" fill="none" stroke="#9B4FFF" stroke-width="1.2"/>
    <polygon points="576.2,590.0 539.8,611.0 539.8,653.0 576.2,674.0 612.6,653.0 612.6,611.0" fill="none" stroke="#9B4FFF" stroke-width="1.2"/>
    <polygon points="652.4,590.0 616.0,611.0 616.0,653.0 652.4,674.0 688.8,653.0 688.8,611.0" fill="none" stroke="#9B4FFF" stroke-width="1.2"/>
    <polygon points="728.6,590.0 692.3,611.0 692.3,653.0 728.6,674.0 765.0,653.0 765.0,611.0" fill="none" stroke="#9B4FFF" stroke-width="1.2"/>
    <polygon points="804.8,590.0 768.5,611.0 768.5,653.0 804.8,674.0 841.2,653.0 841.2,611.0" fill="none" stroke="#9B4FFF" stroke-width="1.2"/>
    <polygon points="157.1,656.0 120.7,677.0 120.7,719.0 157.1,740.0 193.4,719.0 193.4,677.0" fill="none" stroke="#9B4FFF" stroke-width="1.2"/>
    <polygon points="233.3,656.0 196.9,677.0 196.9,719.0 233.3,740.0 269.6,719.0 269.6,677.0" fill="none" stroke="#9B4FFF" stroke-width="1.2"/>
    <polygon points="309.5,656.0 273.1,677.0 273.1,719.0 309.5,740.0 345.8,719.0 345.8,677.0" fill="none" stroke="#9B4FFF" stroke-width="1.2"/>
    <polygon points="385.7,656.0 349.3,677.0 349.3,719.0 385.7,740.0 422.1,719.0 422.1,677.0" fill="none" stroke="#9B4FFF" stroke-width="1.2"/>
    <polygon points="461.9,656.0 425.5,677.0 425.5,719.0 461.9,740.0 498.3,719.0 498.3,677.0" fill="none" stroke="#9B4FFF" stroke-width="1.2"/>
    <polygon points="538.1,656.0 501.7,677.0 501.7,719.0 538.1,740.0 574.5,719.0 574.5,677.0" fill="none" stroke="#9B4FFF" stroke-width="1.2"/>
    <polygon points="614.3,656.0 577.9,677.0 577.9,719.0 614.3,740.0 650.7,719.0 650.7,677.0" fill="none" stroke="#9B4FFF" stroke-width="1.2"/>
    <polygon points="690.5,656.0 654.2,677.0 654.2,719.0 690.5,740.0 726.9,719.0 726.9,677.0" fill="none" stroke="#9B4FFF" stroke-width="1.2"/>
    <polygon points="766.7,656.0 730.4,677.0 730.4,719.0 766.7,740.0 803.1,719.0 803.1,677.0" fill="none" stroke="#9B4FFF" stroke-width="1.2"/>
    <polygon points="842.9,656.0 806.6,677.0 806.6,719.0 842.9,740.0 879.3,719.0 879.3,677.0" fill="none" stroke="#9B4FFF" stroke-width="1.2"/>
    <polygon points="271.4,722.0 235.0,743.0 235.0,785.0 271.4,806.0 307.7,785.0 307.7,743.0" fill="none" stroke="#9B4FFF" stroke-width="1.2"/>
    <polygon points="347.6,722.0 311.2,743.0 311.2,785.0 347.6,806.0 384.0,785.0 384.0,743.0" fill="none" stroke="#9B4FFF" stroke-width="1.2"/>
    <polygon points="423.8,722.0 387.4,743.0 387.4,785.0 423.8,806.0 460.2,785.0 460.2,743.0" fill="none" stroke="#9B4FFF" stroke-width="1.2"/>
    <polygon points="500.0,722.0 463.6,743.0 463.6,785.0 500.0,806.0 536.4,785.0 536.4,743.0" fill="none" stroke="#9B4FFF" stroke-width="1.2"/>
    <polygon points="576.2,722.0 539.8,743.0 539.8,785.0 576.2,806.0 612.6,785.0 612.6,743.0" fill="none" stroke="#9B4FFF" stroke-width="1.2"/>
    <polygon points="652.4,722.0 616.0,743.0 616.0,785.0 652.4,806.0 688.8,785.0 688.8,743.0" fill="none" stroke="#9B4FFF" stroke-width="1.2"/>
    <polygon points="728.6,722.0 692.3,743.0 692.3,785.0 728.6,806.0 765.0,785.0 765.0,743.0" fill="none" stroke="#9B4FFF" stroke-width="1.2"/>
    <polygon points="309.5,788.0 273.1,809.0 273.1,851.0 309.5,872.0 345.8,851.0 345.8,809.0" fill="none" stroke="#9B4FFF" stroke-width="1.2"/>
    <polygon points="385.7,788.0 349.3,809.0 349.3,851.0 385.7,872.0 422.1,851.0 422.1,809.0" fill="none" stroke="#9B4FFF" stroke-width="1.2"/>
    <polygon points="461.9,788.0 425.5,809.0 425.5,851.0 461.9,872.0 498.3,851.0 498.3,809.0" fill="none" stroke="#9B4FFF" stroke-width="1.2"/>
    <polygon points="538.1,788.0 501.7,809.0 501.7,851.0 538.1,872.0 574.5,851.0 574.5,809.0" fill="none" stroke="#9B4FFF" stroke-width="1.2"/>
    <polygon points="614.3,788.0 577.9,809.0 577.9,851.0 614.3,872.0 650.7,851.0 650.7,809.0" fill="none" stroke="#9B4FFF" stroke-width="1.2"/>
    <polygon points="690.5,788.0 654.2,809.0 654.2,851.0 690.5,872.0 726.9,851.0 726.9,809.0" fill="none" stroke="#9B4FFF" stroke-width="1.2"/>
    <polygon points="500.0,854.0 463.6,875.0 463.6,917.0 500.0,938.0 536.4,917.0 536.4,875.0" fill="none" stroke="#9B4FFF" stroke-width="1.2"/>
  </g>

  <!-- Circuit board centred at (500, 400) -->
  <g filter="url(#glow)" transform="translate(500,400)">
    <rect x="-130" y="-130" width="260" height="260" rx="22" fill="none" stroke="url(#ac)" stroke-width="3" opacity="0.82"/>
    <circle cx="-76" cy="-76" r="16" fill="#B44FFF"/>
    <circle cx="0"   cy="-76" r="16" fill="#9B4FFF"/>
    <circle cx="76"  cy="-76" r="16" fill="#B44FFF"/>
    <circle cx="-76" cy="0"   r="16" fill="#7B3FCC"/>
    <circle cx="0"   cy="0"   r="24" fill="url(#ac)"/>
    <circle cx="76"  cy="0"   r="16" fill="#7B3FCC"/>
    <circle cx="-76" cy="76"  r="16" fill="#B44FFF"/>
    <circle cx="0"   cy="76"  r="16" fill="#9B4FFF"/>
    <circle cx="76"  cy="76"  r="16" fill="#B44FFF"/>
    <line x1="-76" y1="-60" x2="-76" y2="60" stroke="url(#ac)" stroke-width="2.5" opacity="0.55"/>
    <line x1="0"   y1="-60" x2="0"   y2="-24" stroke="url(#ac)" stroke-width="2.5" opacity="0.55"/>
    <line x1="0"   y1="24"  x2="0"   y2="60"  stroke="url(#ac)" stroke-width="2.5" opacity="0.55"/>
    <line x1="76"  y1="-60" x2="76"  y2="60"  stroke="url(#ac)" stroke-width="2.5" opacity="0.55"/>
    <line x1="-60" y1="-76" x2="60"  y2="-76" stroke="url(#ac)" stroke-width="2.5" opacity="0.55"/>
    <line x1="-60" y1="0"   x2="-24" y2="0"   stroke="url(#ac)" stroke-width="2.5" opacity="0.55"/>
    <line x1="24"  y1="0"   x2="60"  y2="0"   stroke="url(#ac)" stroke-width="2.5" opacity="0.55"/>
    <line x1="-60" y1="76"  x2="60"  y2="76"  stroke="url(#ac)" stroke-width="2.5" opacity="0.55"/>
    <line x1="-130" y1="-76" x2="-158" y2="-76" stroke="#B44FFF" stroke-width="2" opacity="0.45"/>
    <line x1="-130" y1="0"   x2="-158" y2="0"   stroke="#B44FFF" stroke-width="2" opacity="0.45"/>
    <line x1="-130" y1="76"  x2="-158" y2="76"  stroke="#B44FFF" stroke-width="2" opacity="0.45"/>
    <line x1="130"  y1="-76" x2="158"  y2="-76" stroke="#B44FFF" stroke-width="2" opacity="0.45"/>
    <line x1="130"  y1="0"   x2="158"  y2="0"   stroke="#B44FFF" stroke-width="2" opacity="0.45"/>
    <line x1="130"  y1="76"  x2="158"  y2="76"  stroke="#B44FFF" stroke-width="2" opacity="0.45"/>
    <circle cx="-162" cy="-76" r="7" fill="#B44FFF" opacity="0.55"/>
    <circle cx="-162" cy="0"   r="7" fill="#9B4FFF" opacity="0.55"/>
    <circle cx="-162" cy="76"  r="7" fill="#B44FFF" opacity="0.55"/>
    <circle cx="162"  cy="-76" r="7" fill="#B44FFF" opacity="0.55"/>
    <circle cx="162"  cy="0"   r="7" fill="#9B4FFF" opacity="0.55"/>
    <circle cx="162"  cy="76"  r="7" fill="#B44FFF" opacity="0.55"/>
  </g>

  <!-- BUILDER only -->
  <text x="500" y="660" text-anchor="middle" dominant-baseline="middle"
    font-family="Arial Black, Arial, sans-serif" font-size="72" font-weight="900"
    letter-spacing="10" fill="url(#ac)" filter="url(#glow)">BUILDER</text>
</svg>